<?xml version="1.0" standalone="no"?>
<!DOCTYPE svg PUBLIC "-//W3C//DTD SVG 20010904//EN"
 "http://www.w3.org/TR/2001/REC-SVG-20010904/DTD/svg10.dtd">
<svg version="1.0" xmlns="http://www.w3.org/2000/svg"
 width="768.000000pt" height="768.000000pt" viewBox="0 0 768.000000 768.000000"
 preserveAspectRatio="xMidYMid meet">
<metadata>
Created by potrace 1.10, written by Peter Selinger 2001-2011
</metadata>
<g transform="translate(0.000000,768.000000) scale(0.100000,-0.100000)"
fill="#000000" stroke="none">
<path d="M4825 5482 c-3 -8 -5 -616 -5 -1353 l0 -1339 253 2 c194 2 252 6 251
16 -1 6 -2 614 -2 1350 l-2 1337 -245 0 c-195 0 -246 -3 -250 -13z"/>
<path d="M6659 5473 c-61 -164 -181 -306 -384 -455 -106 -77 -282 -177 -315
-178 -8 0 -23 -7 -33 -14 -17 -13 -18 -33 -18 -231 0 -119 2 -220 5 -223 13
-12 198 71 316 142 100 59 249 162 287 198 12 11 29 18 37 15 14 -6 16 -109
16 -972 l0 -965 255 2 255 3 0 1350 0 1350 -205 3 -205 2 -11 -27z"/>
<path d="M1150 4765 c-223 -50 -384 -157 -524 -347 -31 -42 -56 -79 -56 -83 0
-7 -37 -93 -51 -118 -5 -10 -14 -37 -19 -60 -5 -23 -16 -73 -25 -112 -32 -138
-35 -404 -5 -570 7 -38 16 -78 21 -87 5 -10 9 -23 9 -30 0 -7 6 -25 14 -39 7
-14 16 -37 20 -52 13 -54 129 -232 186 -286 70 -67 239 -171 277 -171 7 0 21
-4 31 -10 20 -11 94 -28 172 -40 156 -24 464 2 547 45 16 8 34 15 40 15 17 0
105 54 173 106 59 45 101 88 140 144 14 19 27 37 30 40 9 9 100 191 100 200 0
4 -19 10 -42 13 -156 21 -197 27 -228 36 -19 5 -66 14 -105 19 -38 6 -81 13
-95 17 -26 6 -36 -7 -55 -75 -13 -45 -83 -127 -131 -154 -154 -86 -345 -56
-473 74 -31 31 -67 79 -80 106 -13 27 -28 57 -33 67 -5 10 -13 57 -19 105 -8
75 -8 88 6 98 12 9 184 11 650 10 349 0 636 2 638 6 6 19 -13 281 -26 358 -27
154 -72 290 -124 372 -12 21 -23 42 -23 48 0 6 -44 55 -97 108 -150 149 -267
210 -476 247 -99 18 -291 18 -367 0z m378 -397 c142 -70 224 -206 226 -373 l1
-70 -382 -3 -382 -2 -12 22 c-13 24 -6 146 10 176 6 9 21 42 34 72 14 30 38
69 53 85 37 39 135 105 155 105 8 0 19 4 25 9 13 14 70 20 144 14 46 -3 83
-13 128 -35z"/>
<path d="M3320 4764 c-41 -8 -83 -19 -92 -24 -10 -6 -26 -10 -36 -10 -24 0
-200 -89 -236 -120 -123 -105 -206 -205 -246 -296 -12 -27 -25 -58 -30 -69
-52 -112 -79 -274 -79 -475 1 -236 30 -393 98 -525 17 -33 31 -64 31 -68 0 -4
5 -13 10 -20 6 -7 32 -41 59 -77 62 -83 174 -181 248 -215 32 -15 60 -31 63
-35 3 -4 32 -15 65 -24 33 -10 80 -24 105 -31 126 -38 512 -22 615 25 69 31
115 50 124 50 5 0 11 4 13 8 2 4 28 23 58 41 30 19 75 54 100 80 81 82 191
270 206 349 4 19 13 46 20 60 17 34 2 60 -39 66 -17 2 -63 10 -102 16 -38 6
-104 15 -145 20 -41 6 -86 14 -100 20 -14 5 -41 10 -60 12 -33 3 -35 2 -43
-42 -8 -44 -22 -81 -55 -149 -23 -45 -107 -129 -137 -137 -14 -3 -25 -10 -25
-14 0 -18 -135 -31 -218 -21 -100 13 -159 41 -230 111 -75 74 -111 151 -133
280 -17 101 -22 346 -9 425 13 85 50 203 67 217 7 6 13 15 13 20 0 10 14 29
50 65 116 119 334 153 483 77 77 -40 151 -144 167 -231 4 -26 11 -37 21 -34 8
2 43 8 79 13 36 5 81 14 100 19 19 6 64 14 100 19 36 5 96 15 133 21 l68 12
-7 31 c-4 17 -10 37 -14 46 -61 127 -81 163 -122 219 -55 78 -54 76 -106 123
-36 33 -120 87 -162 104 -8 3 -29 12 -47 20 -17 8 -36 14 -42 14 -6 0 -19 4
-29 10 -60 34 -419 50 -552 24z"/>
</g>
</svg>
